<svg width="26" height="17" viewBox="0 0 26 17" fill="none" xmlns="http://www.w3.org/2000/svg">
<path d="M21.679 1.14745C20.3611 0.395646 18.8635 0.00107528 17.3395 0.00372827C15.8154 0.0063662 14.3193 0.406201 13.004 1.1625C12.3432 0.782269 11.634 0.489466 10.895 0.291409C9.05663 -0.194136 7.10642 -0.0703623 5.34705 0.64357C3.58754 1.35751 2.11694 2.62164 1.16332 4.24001C0.209699 5.85818 -0.173605 7.74031 0.0727314 9.59421C0.318856 11.4483 1.18115 13.1708 2.52553 14.4945C3.86992 15.8184 5.62138 16.6695 7.50824 16.9161C9.39534 17.1628 11.3123 16.791 12.9624 15.8585C12.9728 15.8526 12.9814 15.8459 12.9908 15.8408L13.0199 15.8594C15.0062 16.9871 17.3673 17.2937 19.584 16.7117C21.8005 16.1295 23.6908 14.7065 24.8388 12.7555C25.9869 10.8044 26.299 8.48534 25.7064 6.3083C25.1139 4.13145 23.6649 2.27475 21.6786 1.14704L21.679 1.14745ZM2.64104 11.893C1.40828 9.7876 1.41024 7.19698 2.64564 5.09317C3.88125 2.98945 6.16374 1.69083 8.63658 1.6848C9.24854 1.68537 9.85799 1.76489 10.449 1.92127C10.7938 2.01511 11.1308 2.13438 11.4571 2.27833C10.2933 3.34083 9.44994 4.69785 9.02003 6.20036C8.59012 7.70301 8.59012 9.29273 9.02003 10.7954C9.44993 12.2979 10.2933 13.6549 11.4571 14.7175C9.89153 15.3969 8.12568 15.4843 6.49847 14.963C4.87131 14.4416 3.4976 13.3484 2.64103 11.893L2.64104 11.893ZM14.6538 5.09751C14.696 5.1693 14.7287 5.24448 14.7682 5.31777L12.1393 4.01033C12.4017 3.71753 12.6893 3.44713 12.9987 3.20238C13.6649 3.72825 14.2261 4.3708 14.6538 5.09753L14.6538 5.09751ZM12.9935 13.7921C12.3362 13.2737 11.7826 12.64 11.3606 11.9231L13.7472 13.1049C13.5136 13.351 13.2617 13.5795 12.9935 13.7887V13.7921ZM15.5606 8.91539L10.7263 6.51642C10.8439 6.14146 10.9945 5.77744 11.1766 5.42826L15.5124 7.58418C15.5723 8.02414 15.5884 8.46902 15.5606 8.91197L15.5606 8.91539ZM10.5096 9.60937C10.4354 9.163 10.4066 8.71058 10.4237 8.25876L15.2185 10.6383C15.0938 11.0095 14.9367 11.3696 14.7492 11.7146L10.5096 9.60937ZM23.3504 11.9087C22.492 13.3646 21.1157 14.4571 19.4863 14.976C17.8568 15.4948 16.0896 15.4032 14.5247 14.7188C14.9586 14.3228 15.3498 13.8838 15.6918 13.4087C15.7534 13.3477 15.805 13.2776 15.8449 13.2011C15.8449 13.1943 15.8449 13.1858 15.8518 13.1783C16.4475 12.2901 16.8689 11.3005 17.0946 10.2602V10.2517C17.4069 8.82046 17.3367 7.33421 16.8908 5.93744C16.4448 4.54066 15.6383 3.28127 14.5497 2.28148C16.5706 1.39268 18.9037 1.51424 20.8176 2.6082C22.4073 3.51321 23.5667 5.00061 24.0415 6.74406C24.5163 8.4877 24.2677 10.345 23.3504 11.9087L23.3504 11.9087Z" fill="white"/>
</svg>
